<svg version="1.1" id="Layer_1" xmlns="http://www.w3.org/2000/svg" xmlns:xlink="http://www.w3.org/1999/xlink" x="0px" y="0px"
	 width="100%" viewBox="0 0 1024 1024" enable-background="new 0 0 1024 1024" xml:space="preserve">
<path fill="#000000" opacity="1.000000" stroke="none" 
	d="
M665.865112,259.207245 
	C672.412720,268.340363 676.409546,278.118835 677.380310,288.980896 
	C677.822205,293.924866 679.561096,295.889130 685.076599,295.840912 
	C719.069641,295.543579 753.066895,295.647491 787.062500,295.719513 
	C831.018860,295.812653 868.099182,332.641235 868.153076,376.690369 
	C868.289551,488.175964 868.287903,599.661926 868.168457,711.147583 
	C868.120178,756.185852 830.885620,793.253296 785.912903,793.265686 
	C604.102417,793.315918 422.291962,793.323120 240.481506,793.274658 
	C195.245850,793.262573 157.913513,756.188293 157.860016,710.981262 
	C157.728439,599.828918 157.740585,488.676147 157.866302,377.523712 
	C157.916885,332.799622 195.218430,295.741302 239.786072,295.697662 
	C273.281830,295.664856 306.778290,295.587860 340.272797,295.793701 
	C345.381317,295.825104 347.248749,294.189178 347.794586,289.147858 
	C350.827179,261.138763 374.203705,237.468109 402.097748,233.579971 
	C406.578644,232.955399 411.030151,232.694427 415.529236,232.695084 
	C480.354462,232.704575 545.179993,232.815384 610.004761,232.646362 
	C632.874207,232.586746 651.431519,240.982880 665.865112,259.207245 
M343.500000,751.084534 
	C416.815582,751.073792 490.131195,751.058533 563.446777,751.053528 
	C637.596069,751.048462 711.745422,751.007019 785.894592,751.114136 
	C794.938904,751.127197 802.898560,748.653931 810.134033,743.336365 
	C823.270874,733.681763 826.927124,719.924255 826.928955,704.639587 
	C826.941772,595.833313 826.911743,487.027069 826.904846,378.220795 
	C826.904480,373.018066 826.443054,367.886047 824.329285,363.073883 
	C816.835083,346.012268 803.580750,337.472229 785.093628,337.406830 
	C742.938904,337.257629 700.783447,337.322937 658.628296,337.326233 
	C646.238403,337.327209 637.554810,329.915741 636.459473,317.626617 
	C635.840088,310.677612 636.166992,303.645874 636.019043,296.652466 
	C635.955750,293.662140 635.880371,290.691803 634.693665,287.824799 
	C630.954529,278.791412 623.625610,274.194458 612.424011,274.190796 
	C546.772461,274.169312 481.118805,274.460022 415.470734,273.981689 
	C398.068848,273.854919 389.359985,285.983337 390.266388,299.323090 
	C390.615753,304.464752 390.341888,309.650238 390.315613,314.815582 
	C390.245087,328.675751 381.728943,337.326691 367.944702,337.341125 
	C325.787750,337.385315 283.628662,337.611511 241.474442,337.269531 
	C217.404037,337.074249 199.564896,356.416107 199.817688,376.289276 
	C199.917160,384.108551 199.458679,391.933380 199.446762,399.755981 
	C199.399048,431.064331 199.425568,462.372803 199.427063,493.681213 
	C199.430527,565.997437 199.311218,638.314026 199.506454,710.629761 
	C199.575653,736.263428 220.921799,751.813354 241.050537,751.323364 
	C274.848938,750.500610 308.681702,751.089478 343.500000,751.084534 
z"/>
<path fill="#000000" opacity="1.000000" stroke="none" 
	d="
M605.309631,448.567993 
	C603.188049,452.005341 603.993896,454.676178 606.756287,456.724945 
	C609.980225,459.116028 612.475891,457.006592 614.628235,454.871887 
	C627.045715,442.555786 639.369141,430.144867 651.765991,417.807739 
	C655.777100,413.815948 660.530701,414.572113 661.943359,419.331177 
	C662.859863,422.418610 660.872253,424.433929 659.045593,426.326752 
	C651.989197,433.638855 644.812683,440.834869 637.724670,448.116699 
	C633.077942,452.890472 628.537964,457.768127 623.889038,462.539703 
	C621.100586,465.401825 619.866272,468.400055 623.036194,471.671204 
	C626.464661,475.209076 629.196777,473.216888 631.872070,470.386017 
	C643.198975,458.400269 654.578003,446.463745 665.945374,434.516296 
	C666.863037,433.551819 667.797363,432.596039 668.793213,431.714508 
	C671.315552,429.481628 673.920593,429.456268 676.367554,431.767639 
	C678.636536,433.910767 678.828186,436.497894 677.068359,438.980774 
	C674.663025,442.374298 672.077454,445.643707 669.491699,448.904968 
	C655.216370,466.909546 641.183899,485.116760 626.502319,502.784302 
	C620.194275,510.375214 610.945374,513.792786 601.473755,516.311096 
	C591.611511,518.933289 582.471741,517.224976 573.690979,512.477600 
	C571.715271,511.409393 570.244263,512.132629 568.872864,513.670105 
	C558.468201,525.335083 548.038879,536.978210 537.164062,549.134705 
	C543.835999,556.046082 550.362000,562.856628 556.942261,569.614380 
	C593.085327,606.732178 629.213257,643.864868 665.446594,680.894409 
	C668.378357,683.890625 668.254395,685.799194 665.287781,688.595520 
	C658.865051,694.649597 652.641968,700.924988 646.530457,707.295227 
	C643.748291,710.195251 641.761108,710.463562 638.789307,707.346436 
	C598.557434,665.147400 558.213867,623.054810 517.919617,580.915161 
	C513.601318,576.399109 513.308533,576.469177 509.119812,581.055054 
	C488.341980,603.803345 467.487640,626.481628 446.660522,649.184814 
	C429.437103,667.959778 412.176910,686.701233 395.013916,705.531250 
	C390.005371,711.026245 389.922424,711.156311 384.663879,705.966980 
	C378.380646,699.766541 372.270172,693.378174 365.763306,687.422546 
	C362.294189,684.247253 361.969971,682.214966 365.554535,678.703369 
	C391.852966,652.939758 417.952515,626.973083 444.105408,601.061035 
	C459.016998,586.286682 473.851562,571.433899 488.864746,556.763733 
	C491.749390,553.945007 492.155945,551.783325 489.216583,548.884399 
	C486.851013,546.551331 484.773376,543.921570 482.620300,541.379272 
	C480.737610,539.156311 479.015717,538.862671 476.848236,541.177734 
	C473.769409,544.466309 470.401947,547.478210 466.156464,549.250122 
	C455.391724,553.742615 446.408844,549.885803 439.012909,542.339600 
	C415.110260,517.951233 391.767334,493.010895 367.692230,468.796814 
	C358.760834,459.813873 352.495026,449.689056 350.443298,437.491211 
	C348.253418,424.471832 348.174347,411.269409 354.247589,398.915222 
	C360.646881,385.897858 373.259399,383.877899 383.438385,394.189423 
	C426.386505,437.696594 469.369110,481.170044 512.172058,524.819641 
	C515.757812,528.476257 517.709839,528.483704 521.212219,524.889587 
	C528.878845,517.022278 536.982788,509.577545 544.984131,502.041046 
	C552.109619,495.329590 551.801636,495.491272 548.810974,486.195282 
	C544.071350,471.462860 544.036743,456.906403 554.101624,444.137238 
	C558.283691,438.831421 563.759949,434.516052 568.811768,429.931030 
	C583.730835,416.390594 598.738403,402.947662 613.696350,389.449951 
	C617.582397,385.943237 624.623962,387.738129 626.160767,392.721283 
	C626.840393,394.925140 624.986206,396.022827 623.770691,397.275208 
	C613.326904,408.035706 602.841675,418.755859 592.370911,429.490143 
	C591.440186,430.444244 590.413696,431.330200 589.622681,432.390320 
	C587.585754,435.120209 587.289612,437.993439 589.961853,440.418030 
	C592.642822,442.850525 595.057556,441.758942 597.338379,439.419037 
	C608.734985,427.726929 620.210571,416.111816 631.607422,404.419922 
	C635.201660,400.732666 640.551147,401.540405 642.739136,406.238678 
	C643.741943,408.392151 642.286804,409.646088 641.003906,410.977417 
	C634.184998,418.053955 627.346924,425.112335 620.569702,432.228699 
	C615.515381,437.535950 610.543518,442.921692 605.309631,448.567993 
z"/>
<path fill="#000000" opacity="1.000000" stroke="none" 
	d="
M503.163330,669.857300 
	C529.815552,671.750488 554.218201,666.002136 576.877502,652.819763 
	C578.876709,651.656738 580.619934,650.623962 582.469360,653.076660 
	C589.383728,662.246277 598.175476,669.814514 604.670227,679.391663 
	C606.909973,682.694336 606.377441,684.111938 603.336304,685.964478 
	C582.926392,698.397400 561.154236,706.973938 537.374695,710.432312 
	C498.909546,716.026428 462.949127,708.808594 429.112335,690.060486 
	C428.384491,689.657288 427.708588,689.146545 426.953644,688.808533 
	C422.993927,687.035889 422.210449,684.975403 425.424561,681.404236 
	C432.658508,673.366882 439.664673,665.118774 446.582428,656.805664 
	C448.969177,653.937500 451.044189,653.847778 454.245117,655.568359 
	C469.370087,663.698303 485.478699,668.675354 503.163330,669.857300 
z"/>
<path fill="#000000" opacity="1.000000" stroke="none" 
	d="
M554.826782,381.940094 
	C567.179810,385.210602 578.694885,389.532623 589.702087,395.183167 
	C590.721985,395.706696 591.876038,396.113434 592.380188,397.545135 
	C591.802734,400.246979 589.400024,401.702972 587.501831,403.439362 
	C579.145630,411.083160 570.640625,418.564362 562.290100,426.214233 
	C560.140137,428.183807 558.151611,428.258423 555.481934,427.359985 
	C516.137451,414.119110 478.790771,418.059631 443.687622,440.639343 
	C441.599457,441.982513 439.631226,443.076996 437.459778,440.854980 
	C428.397491,431.581573 419.334442,422.309296 410.098907,411.523987 
	C454.214813,379.779938 501.858704,369.179688 554.826782,381.940094 
z"/>
<path fill="#000000" opacity="1.000000" stroke="none" 
	d="
M634.256287,507.302246 
	C644.216064,496.156433 654.076538,485.411285 664.550293,474.932556 
	C667.940247,478.095367 668.762573,481.784821 669.922302,485.106445 
	C689.835876,542.142578 682.793579,595.438232 647.659546,644.862244 
	C644.930786,648.700867 642.952942,649.064087 639.508179,645.870728 
	C631.934204,638.849365 624.171021,632.025269 616.325134,625.307556 
	C613.356628,622.765930 612.970581,620.857483 615.437683,617.461609 
	C631.119751,595.875488 638.506348,571.460938 638.514099,544.936523 
	C638.517212,534.313477 636.945557,523.712158 634.242493,513.356018 
	C633.747437,511.459473 632.815430,509.551666 634.256287,507.302246 
z"/>
<path fill="#000000" opacity="1.000000" stroke="none" 
	d="
M361.379669,476.678467 
	C371.321838,486.759064 380.912109,496.716705 390.621124,506.557281 
	C392.553680,508.515991 392.674255,510.481842 392.061371,512.917603 
	C382.439362,551.156494 388.890076,586.479370 411.594452,618.718994 
	C413.867188,621.946106 413.499573,623.879150 410.669189,626.206604 
	C402.055450,633.289490 393.514923,640.462524 385.011139,647.677368 
	C382.674805,649.659607 381.302032,648.729187 379.765717,646.662537 
	C364.440002,626.046326 353.822357,603.298279 348.685333,578.080994 
	C341.853668,544.545166 344.963409,511.911346 357.825836,480.212677 
	C358.441620,478.695160 358.383118,476.323914 361.379669,476.678467 
z"/>
<path fill="#000000" opacity="1.000000" stroke="none" 
	d="
M783.108826,395.122620 
	C793.640564,416.194092 782.747437,437.920349 765.207214,445.163788 
	C747.896118,452.312592 727.973022,445.090973 719.444092,428.713776 
	C710.806519,412.127747 716.193481,391.445801 731.697815,381.669128 
	C747.992676,371.393921 768.124329,374.954834 779.891663,390.225769 
	C781.005066,391.670624 781.926941,393.263092 783.108826,395.122620 
z"/>
</svg>